<svg width="22" height="22" viewBox="0 0 22 22" fill="none" xmlns="http://www.w3.org/2000/svg">
<g id="ic:round-business-center">
<path id="Vector" d="M11.9167 14.6667H10.0833C9.57918 14.6667 9.16668 14.2542 9.16668 13.75H2.75918V17.4167C2.75918 18.425 3.58418 19.25 4.59251 19.25H17.4167C18.425 19.25 19.25 18.425 19.25 17.4167V13.75H12.8333C12.8333 14.2542 12.4208 14.6667 11.9167 14.6667ZM18.3333 6.41667H14.6667C14.6667 4.39083 13.0258 2.75 11 2.75C8.97418 2.75 7.33334 4.39083 7.33334 6.41667H3.66668C2.65834 6.41667 1.83334 7.24167 1.83334 8.25V11C1.83334 12.0175 2.64918 12.8333 3.66668 12.8333H9.16668V11.9167C9.16668 11.4125 9.57918 11 10.0833 11H11.9167C12.4208 11 12.8333 11.4125 12.8333 11.9167V12.8333H18.3333C19.3417 12.8333 20.1667 12.0083 20.1667 11V8.25C20.1667 7.24167 19.3417 6.41667 18.3333 6.41667ZM9.16668 6.41667C9.16668 5.40833 9.99168 4.58333 11 4.58333C12.0083 4.58333 12.8333 5.40833 12.8333 6.41667H9.15751H9.16668Z" fill="#1F57BA"/>
</g>
</svg>
